<svg xmlns="http://www.w3.org/2000/svg" viewBox="-10 0 783.87 88" width="2352" height="264">
  <title>SoBIG — Solav Biomechanical Interfaces Group</title>
  <rect x="-10" y="0" width="783.87" height="88" fill="#0B3A5B"/>
  <path d="M40.00 12.75 L28.75 40.25 L18.75 64.00 L31.25 70.25" fill="none" stroke="#00A8F0" stroke-width="8.13" stroke-linecap="round" stroke-linejoin="round"/>
  <path d="M40.00 12.75 L53.75 39.00 L47.50 66.50 L65.00 69.00" fill="none" stroke="#FFFFFF" stroke-width="8.75" stroke-linecap="round" stroke-linejoin="round"/>
  <circle cx="28.75" cy="40.25" r="4.63" fill="#0B3A5B" stroke="#00A8F0" stroke-width="3.25"/>
  <circle cx="18.75" cy="64.0" r="4.0" fill="#0B3A5B" stroke="#00A8F0" stroke-width="3.0"/>
  <circle cx="53.75" cy="39.0" r="4.63" fill="#0B3A5B" stroke="#FFFFFF" stroke-width="3.25"/>
  <circle cx="47.5" cy="66.5" r="4.0" fill="#0B3A5B" stroke="#FFFFFF" stroke-width="3.0"/>
  <circle cx="40.0" cy="12.75" r="5.25" fill="#0B3A5B" stroke="#FFFFFF" stroke-width="3.5"/>
  <path fill="#00A8F0" d="M89.60 51.20L103.91 51.20Q104.33 54.81 107.24 57.72Q110.16 60.63 114.92 62.27Q119.69 63.92 125.63 63.92Q131.03 63.92 134.53 62.75Q138.02 61.59 139.72 59.47Q141.41 57.35 141.41 54.38Q141.41 51.52 139.29 49.98Q137.17 48.45 132.62 47.44Q128.06 46.44 120.65 45.38Q114.82 44.53 109.63 42.99Q104.44 41.46 100.46 39.02Q96.49 36.58 94.21 33.03Q91.93 29.48 91.93 24.61Q91.93 18.57 95.38 14.01Q98.82 9.46 105.60 6.92Q112.38 4.37 122.24 4.37Q137.07 4.37 145.07 10.68Q153.07 16.98 152.85 28.00L139.08 28.00Q138.66 21.75 133.84 18.99Q129.02 16.24 121.71 16.24Q114.92 16.24 110.53 18.25Q106.13 20.27 106.13 25.14Q106.13 27.05 107.19 28.48Q108.25 29.91 110.79 30.97Q113.34 32.03 117.68 32.98Q122.02 33.93 128.49 34.89Q134.53 35.73 139.45 37.16Q144.38 38.59 147.93 40.87Q151.48 43.15 153.38 46.65Q155.29 50.14 155.29 55.23Q155.29 61.48 152.06 66.09Q148.83 70.70 142.10 73.24Q135.37 75.78 124.67 75.78Q117.04 75.78 111.22 74.14Q105.39 72.50 101.15 69.74Q96.91 66.99 94.26 63.70Q91.62 60.42 90.50 57.14Q89.39 53.85 89.60 51.20Z"/>
  <circle cx="192.52" cy="48.02" r="21.35" fill="none" stroke="#00A8F0" stroke-width="12.4"/>
  <path fill="#FFFFFF" d="M233.68 74.30L233.68 5.75L273.20 5.75Q286.97 5.75 294.12 10.36Q301.27 14.97 301.27 24.08Q301.27 29.91 298.41 33.24Q295.55 36.58 290.31 38.17Q285.06 39.76 277.96 40.18L278.39 39.44Q283.58 39.55 288.19 40.18Q292.80 40.82 296.29 42.51Q299.79 44.21 301.80 47.23Q303.82 50.25 303.82 55.12Q303.82 61.48 300.43 65.67Q297.04 69.85 291.00 71.97Q284.96 74.09 277.01 74.30L233.68 74.30ZM247.77 62.65L275.53 62.65Q282.20 62.65 285.80 60.47Q289.41 58.30 289.41 53.53Q289.41 50.04 287.29 48.45Q285.17 46.86 281.67 46.49Q278.18 46.12 274.15 46.12L247.77 46.12L247.77 62.65ZM247.77 34.78L272.67 34.78Q279.34 34.78 282.94 32.82Q286.55 30.86 286.55 26.09Q286.55 21.32 282.94 19.36Q279.34 17.40 273.41 17.40L247.77 17.40L247.77 34.78ZM314.03 5.75L328.12 5.75L328.12 74.30L314.03 74.30L314.03 5.75ZM381.46 75.68Q371.92 75.68 364.24 73.45Q356.56 71.23 351.00 66.78Q345.44 62.33 342.47 55.76Q339.50 49.19 339.50 40.61Q339.50 31.92 342.63 25.19Q345.75 18.46 351.53 13.80Q357.30 9.14 365.30 6.76Q373.30 4.37 383.05 4.37Q394.60 4.37 402.97 7.60Q411.34 10.84 416.16 16.66Q420.98 22.49 421.62 30.54L408.05 30.54Q406.68 26.30 403.55 23.18Q400.43 20.05 395.34 18.31Q390.25 16.56 383.05 16.56Q373.83 16.56 367.32 19.52Q360.80 22.49 357.41 27.89Q354.02 33.30 354.02 40.61Q354.02 47.71 356.99 52.85Q359.95 57.98 366.15 60.74Q372.35 63.49 381.99 63.49Q389.41 63.49 395.07 61.53Q400.74 59.57 404.56 56.24Q408.37 52.90 409.96 48.77L415.47 46.75Q414.09 60.42 405.14 68.05Q396.19 75.68 381.46 75.68ZM411.87 74.30Q411.87 71.02 412.29 66.72Q412.72 62.43 413.35 58.04Q413.99 53.64 414.52 49.93L383.16 49.93L383.16 40.93L424.05 40.93L424.05 74.30L411.87 74.30Z"/>
  <line x1="454.73" y1="10" x2="454.73" y2="74" stroke="#3E6A8A" stroke-width="2.5"/>
  <path fill="#C9DDEB" d="M475.67 31.20L478.67 31.20Q478.78 32.19 479.47 32.99Q480.15 33.79 481.30 34.23Q482.45 34.68 483.93 34.68Q485.26 34.68 486.12 34.35Q486.99 34.03 487.40 33.45Q487.82 32.87 487.82 32.09Q487.82 31.30 487.32 30.86Q486.82 30.41 485.80 30.10Q484.77 29.79 483.18 29.49Q481.86 29.25 480.61 28.85Q479.37 28.44 478.39 27.82Q477.40 27.20 476.83 26.29Q476.27 25.39 476.27 24.15Q476.27 22.74 477.06 21.61Q477.86 20.48 479.43 19.83Q480.99 19.18 483.23 19.18Q486.66 19.18 488.47 20.76Q490.28 22.34 490.23 25.04L487.28 25.04Q487.20 23.34 486.04 22.58Q484.88 21.83 483.10 21.83Q481.50 21.83 480.42 22.39Q479.34 22.96 479.34 24.23Q479.34 24.77 479.60 25.16Q479.86 25.55 480.45 25.86Q481.05 26.17 482.08 26.46Q483.12 26.74 484.64 27.06Q485.93 27.28 487.07 27.66Q488.20 28.04 489.05 28.60Q489.90 29.17 490.39 30.06Q490.87 30.95 490.87 32.25Q490.87 33.73 490.12 34.88Q489.36 36.03 487.81 36.69Q486.26 37.35 483.80 37.35Q481.94 37.35 480.55 36.91Q479.16 36.46 478.18 35.74Q477.21 35.03 476.63 34.19Q476.05 33.36 475.82 32.56Q475.59 31.76 475.67 31.20ZM500.78 37.30Q498.54 37.30 496.76 36.49Q494.98 35.68 493.95 34.11Q492.93 32.54 492.93 30.30Q492.93 28.09 493.95 26.51Q494.98 24.93 496.76 24.09Q498.54 23.26 500.78 23.26Q503.02 23.26 504.78 24.09Q506.53 24.93 507.55 26.51Q508.56 28.09 508.56 30.30Q508.56 32.54 507.55 34.11Q506.53 35.68 504.78 36.49Q503.02 37.30 500.78 37.30ZM500.78 34.84Q502.08 34.84 503.16 34.33Q504.24 33.81 504.87 32.79Q505.51 31.76 505.51 30.30Q505.51 28.85 504.87 27.82Q504.24 26.79 503.17 26.24Q502.11 25.69 500.78 25.69Q499.46 25.69 498.38 26.23Q497.30 26.77 496.64 27.79Q495.98 28.82 495.98 30.30Q495.98 31.76 496.62 32.79Q497.27 33.81 498.37 34.33Q499.46 34.84 500.78 34.84ZM511.50 18.15L514.50 18.15L514.50 37.00L511.50 37.00L511.50 18.15ZM524.14 37.30Q522.30 37.30 520.78 36.41Q519.25 35.52 518.35 33.94Q517.44 32.36 517.44 30.30Q517.44 28.20 518.36 26.62Q519.28 25.04 520.84 24.15Q522.41 23.26 524.35 23.26Q526.51 23.26 527.78 24.20Q529.05 25.15 529.59 26.74Q530.13 28.33 530.13 30.30Q530.13 31.41 529.81 32.64Q529.48 33.87 528.79 34.92Q528.11 35.97 526.96 36.64Q525.81 37.30 524.14 37.30ZM525.06 34.81Q526.57 34.81 527.63 34.23Q528.70 33.65 529.25 32.63Q529.81 31.60 529.81 30.30Q529.81 28.87 529.24 27.86Q528.67 26.85 527.62 26.29Q526.57 25.74 525.06 25.74Q522.90 25.74 521.71 27.01Q520.52 28.28 520.52 30.30Q520.52 31.63 521.10 32.65Q521.68 33.68 522.71 34.25Q523.73 34.81 525.06 34.81ZM529.81 23.55L532.83 23.55L532.83 37.00L530.02 37.00Q530.02 37.00 529.97 36.49Q529.92 35.97 529.86 35.23Q529.81 34.49 529.81 33.81L529.81 23.55ZM542.71 34.87L541.66 34.87L546.30 23.55L549.57 23.55L543.63 37.00L540.77 37.00L534.91 23.55L538.20 23.55L542.71 34.87ZM558.37 37.00L558.37 19.50L567.28 19.50Q570.50 19.50 572.21 20.71Q573.93 21.91 573.93 24.18Q573.93 25.63 573.26 26.48Q572.60 27.33 571.39 27.75Q570.17 28.17 568.53 28.28L568.63 28.12Q569.82 28.14 570.89 28.32Q571.95 28.50 572.78 28.93Q573.60 29.36 574.07 30.13Q574.55 30.90 574.55 32.11Q574.55 33.73 573.74 34.79Q572.93 35.84 571.50 36.39Q570.06 36.95 568.20 37.00L558.37 37.00ZM561.45 34.38L567.74 34.38Q569.50 34.38 570.47 33.77Q571.44 33.17 571.44 31.87Q571.44 30.84 570.85 30.37Q570.25 29.90 569.32 29.76Q568.39 29.63 567.34 29.63L561.45 29.63L561.45 34.38ZM561.45 27.06L567.09 27.06Q568.85 27.06 569.81 26.46Q570.77 25.85 570.77 24.53Q570.77 23.23 569.81 22.68Q568.85 22.12 567.31 22.12L561.45 22.12L561.45 27.06ZM580.86 17.86L580.86 20.75L577.27 20.75L577.27 17.86L580.86 17.86ZM577.54 23.55L580.57 23.55L580.57 37.00L577.54 37.00L577.54 23.55ZM591.31 37.30Q589.07 37.30 587.29 36.49Q585.51 35.68 584.48 34.11Q583.46 32.54 583.46 30.30Q583.46 28.09 584.48 26.51Q585.51 24.93 587.29 24.09Q589.07 23.26 591.31 23.26Q593.55 23.26 595.31 24.09Q597.06 24.93 598.08 26.51Q599.09 28.09 599.09 30.30Q599.09 32.54 598.08 34.11Q597.06 35.68 595.31 36.49Q593.55 37.30 591.31 37.30ZM591.31 34.84Q592.61 34.84 593.69 34.33Q594.77 33.81 595.40 32.79Q596.04 31.76 596.04 30.30Q596.04 28.85 595.40 27.82Q594.77 26.79 593.70 26.24Q592.64 25.69 591.31 25.69Q589.99 25.69 588.91 26.23Q587.83 26.77 587.17 27.79Q586.51 28.82 586.51 30.30Q586.51 31.76 587.16 32.79Q587.80 33.81 588.90 34.33Q589.99 34.84 591.31 34.84ZM601.76 23.55L604.76 23.55L604.76 37.00L601.76 37.00L601.76 23.55ZM610.43 23.26Q611.59 23.26 612.58 23.58Q613.56 23.90 614.28 24.57Q614.99 25.23 615.38 26.20Q615.78 27.17 615.78 28.50L615.78 37.00L612.78 37.00L612.78 29.09Q612.78 27.44 611.98 26.65Q611.19 25.85 609.48 25.85Q608.19 25.85 607.12 26.40Q606.06 26.96 605.38 27.83Q604.71 28.71 604.60 29.76L604.57 28.31Q604.71 27.31 605.16 26.40Q605.62 25.50 606.38 24.78Q607.14 24.07 608.16 23.66Q609.19 23.26 610.43 23.26ZM621.15 23.26Q622.34 23.26 623.31 23.58Q624.28 23.90 625.00 24.57Q625.71 25.23 626.12 26.20Q626.52 27.17 626.52 28.50L626.52 37.00L623.50 37.00L623.50 29.09Q623.50 27.44 622.70 26.65Q621.90 25.85 620.20 25.85Q618.91 25.85 617.84 26.40Q616.77 26.96 616.11 27.83Q615.45 28.71 615.34 29.76L615.29 28.25Q615.42 27.28 615.91 26.38Q616.40 25.47 617.15 24.77Q617.91 24.07 618.92 23.66Q619.93 23.26 621.15 23.26ZM641.05 32.57L643.94 32.57Q643.72 33.95 642.87 35.02Q642.02 36.08 640.56 36.69Q639.10 37.30 637.08 37.30Q634.78 37.30 632.97 36.45Q631.17 35.60 630.14 34.03Q629.11 32.46 629.11 30.30Q629.11 28.17 630.11 26.58Q631.11 24.98 632.88 24.12Q634.65 23.26 636.97 23.26Q639.37 23.26 640.98 24.11Q642.59 24.96 643.37 26.65Q644.15 28.33 644.02 30.90L632.16 30.90Q632.30 32.03 632.91 32.94Q633.51 33.84 634.57 34.34Q635.62 34.84 637.02 34.84Q638.59 34.84 639.66 34.22Q640.72 33.60 641.05 32.57ZM636.89 25.69Q635.05 25.69 633.87 26.59Q632.68 27.50 632.33 28.90L640.99 28.90Q640.89 27.39 639.78 26.54Q638.67 25.69 636.89 25.69ZM661.16 31.79Q661.00 33.52 660.06 34.76Q659.11 36.00 657.53 36.65Q655.95 37.30 653.90 37.30Q651.69 37.30 649.89 36.49Q648.09 35.68 647.04 34.11Q645.99 32.54 645.99 30.30Q645.99 28.06 647.04 26.50Q648.09 24.93 649.89 24.09Q651.69 23.26 653.90 23.26Q655.95 23.26 657.52 23.92Q659.08 24.58 660.03 25.80Q660.97 27.01 661.14 28.74L658.38 28.74Q657.92 27.31 656.72 26.51Q655.52 25.71 653.90 25.71Q652.58 25.71 651.47 26.24Q650.36 26.77 649.70 27.78Q649.04 28.79 649.04 30.30Q649.04 31.79 649.70 32.82Q650.36 33.84 651.47 34.34Q652.58 34.84 653.90 34.84Q655.68 34.84 656.83 34.04Q657.98 33.25 658.41 31.79L661.16 31.79ZM675.09 37.00L675.09 29.22Q675.09 28.14 674.73 27.43Q674.37 26.71 673.61 26.34Q672.85 25.96 671.61 25.96Q670.37 25.96 669.34 26.48Q668.32 27.01 667.67 27.87Q667.02 28.74 666.91 29.79L666.89 28.28Q667.02 27.31 667.48 26.40Q667.94 25.50 668.70 24.80Q669.45 24.09 670.48 23.68Q671.50 23.26 672.75 23.26Q673.91 23.26 674.89 23.58Q675.88 23.90 676.59 24.54Q677.31 25.17 677.70 26.11Q678.09 27.04 678.09 28.25L678.09 37.00L675.09 37.00ZM664.08 37.00L664.08 18.15L667.08 18.15L667.08 37.00L664.08 37.00ZM687.41 37.30Q685.57 37.30 684.04 36.41Q682.52 35.52 681.61 33.94Q680.71 32.36 680.71 30.30Q680.71 28.20 681.63 26.62Q682.55 25.04 684.11 24.15Q685.68 23.26 687.62 23.26Q689.78 23.26 691.05 24.20Q692.32 25.15 692.86 26.74Q693.40 28.33 693.40 30.30Q693.40 31.41 693.08 32.64Q692.75 33.87 692.06 34.92Q691.38 35.97 690.23 36.64Q689.08 37.30 687.41 37.30ZM688.32 34.81Q689.84 34.81 690.90 34.23Q691.97 33.65 692.52 32.63Q693.08 31.60 693.08 30.30Q693.08 28.87 692.51 27.86Q691.94 26.85 690.89 26.29Q689.84 25.74 688.32 25.74Q686.16 25.74 684.98 27.01Q683.79 28.28 683.79 30.30Q683.79 31.63 684.37 32.65Q684.95 33.68 685.98 34.25Q687.00 34.81 688.32 34.81ZM693.08 23.55L696.10 23.55L696.10 37.00L693.29 37.00Q693.29 37.00 693.24 36.49Q693.18 35.97 693.13 35.23Q693.08 34.49 693.08 33.81L693.08 23.55ZM699.39 23.55L702.39 23.55L702.39 37.00L699.39 37.00L699.39 23.55ZM708.06 23.26Q709.22 23.26 710.21 23.58Q711.19 23.90 711.91 24.57Q712.62 25.23 713.02 26.20Q713.41 27.17 713.41 28.50L713.41 37.00L710.41 37.00L710.41 29.09Q710.41 27.44 709.61 26.65Q708.82 25.85 707.12 25.85Q705.82 25.85 704.75 26.40Q703.69 26.96 703.01 27.83Q702.34 28.71 702.23 29.76L702.20 28.31Q702.34 27.31 702.80 26.40Q703.26 25.50 704.01 24.78Q704.77 24.07 705.79 23.66Q706.82 23.26 708.06 23.26ZM720.24 17.86L720.24 20.75L716.65 20.75L716.65 17.86L720.24 17.86ZM716.92 23.55L719.94 23.55L719.94 37.00L716.92 37.00L716.92 23.55ZM738.00 31.79Q737.84 33.52 736.90 34.76Q735.95 36.00 734.37 36.65Q732.79 37.30 730.74 37.30Q728.53 37.30 726.73 36.49Q724.94 35.68 723.88 34.11Q722.83 32.54 722.83 30.30Q722.83 28.06 723.88 26.50Q724.94 24.93 726.73 24.09Q728.53 23.26 730.74 23.26Q732.79 23.26 734.36 23.92Q735.93 24.58 736.87 25.80Q737.82 27.01 737.98 28.74L735.22 28.74Q734.76 27.31 733.56 26.51Q732.36 25.71 730.74 25.71Q729.42 25.71 728.31 26.24Q727.20 26.77 726.54 27.78Q725.88 28.79 725.88 30.30Q725.88 31.79 726.54 32.82Q727.20 33.84 728.31 34.34Q729.42 34.84 730.74 34.84Q732.52 34.84 733.67 34.04Q734.82 33.25 735.25 31.79L738.00 31.79ZM746.64 37.30Q744.81 37.30 743.28 36.41Q741.76 35.52 740.85 33.94Q739.95 32.36 739.95 30.30Q739.95 28.20 740.87 26.62Q741.78 25.04 743.35 24.15Q744.92 23.26 746.86 23.26Q749.02 23.26 750.29 24.20Q751.56 25.15 752.10 26.74Q752.64 28.33 752.64 30.30Q752.64 31.41 752.31 32.64Q751.99 33.87 751.30 34.92Q750.61 35.97 749.47 36.64Q748.32 37.30 746.64 37.30ZM747.56 34.81Q749.07 34.81 750.14 34.23Q751.21 33.65 751.76 32.63Q752.31 31.60 752.31 30.30Q752.31 28.87 751.75 27.86Q751.18 26.85 750.13 26.29Q749.07 25.74 747.56 25.74Q745.40 25.74 744.21 27.01Q743.03 28.28 743.03 30.30Q743.03 31.63 743.61 32.65Q744.19 33.68 745.21 34.25Q746.24 34.81 747.56 34.81ZM752.31 23.55L755.34 23.55L755.34 37.00L752.53 37.00Q752.53 37.00 752.48 36.49Q752.42 35.97 752.37 35.23Q752.31 34.49 752.31 33.81L752.31 23.55ZM758.90 18.15L761.90 18.15L761.90 37.00L758.90 37.00L758.90 18.15ZM477.35 51.50L480.42 51.50L480.42 69.00L477.35 69.00L477.35 51.50ZM484.72 55.55L487.71 55.55L487.71 69.00L484.72 69.00L484.72 55.55ZM493.38 55.26Q494.55 55.26 495.53 55.58Q496.52 55.90 497.23 56.57Q497.95 57.23 498.34 58.20Q498.73 59.17 498.73 60.50L498.73 69.00L495.73 69.00L495.73 61.09Q495.73 59.44 494.94 58.65Q494.14 57.85 492.44 57.85Q491.14 57.85 490.08 58.40Q489.01 58.96 488.34 59.83Q487.66 60.71 487.55 61.76L487.53 60.31Q487.66 59.31 488.12 58.40Q488.58 57.50 489.33 56.78Q490.09 56.07 491.12 55.66Q492.14 55.26 493.38 55.26ZM501.11 55.55L510.61 55.55L510.61 58.01L501.11 58.01L501.11 55.55ZM504.35 51.94L507.37 51.94L507.37 69.00L504.35 69.00L504.35 51.94ZM524.19 64.57L527.08 64.57Q526.86 65.95 526.01 67.02Q525.16 68.08 523.71 68.69Q522.25 69.30 520.22 69.30Q517.93 69.30 516.12 68.45Q514.31 67.60 513.28 66.03Q512.26 64.46 512.26 62.30Q512.26 60.17 513.26 58.58Q514.26 56.98 516.02 56.12Q517.79 55.26 520.11 55.26Q522.52 55.26 524.12 56.11Q525.73 56.96 526.51 58.65Q527.30 60.33 527.16 62.90L515.31 62.90Q515.44 64.03 516.05 64.94Q516.66 65.84 517.71 66.34Q518.76 66.84 520.17 66.84Q521.73 66.84 522.80 66.22Q523.87 65.60 524.19 64.57ZM520.03 57.69Q518.20 57.69 517.01 58.59Q515.82 59.50 515.47 60.90L524.14 60.90Q524.03 59.39 522.92 58.54Q521.82 57.69 520.03 57.69ZM529.83 55.55L532.83 55.55L532.83 69.00L529.83 69.00L529.83 55.55ZM537.69 58.12Q536.23 58.12 535.19 58.74Q534.15 59.36 533.53 60.25Q532.91 61.14 532.67 61.98L532.64 60.47Q532.67 60.17 532.83 59.56Q532.99 58.96 533.33 58.23Q533.67 57.50 534.25 56.81Q534.83 56.12 535.68 55.69Q536.53 55.26 537.69 55.26L537.69 58.12ZM539.01 55.72L548.76 55.72L548.76 58.15L539.01 58.15L539.01 55.72ZM546.76 50.15L548.98 50.15L548.98 52.75L547.30 52.75Q546.55 52.72 545.99 52.91Q545.44 53.10 545.13 53.61Q544.82 54.12 544.82 55.07L544.82 69.00L541.80 69.00L541.80 54.80Q541.80 53.18 542.39 52.15Q542.98 51.13 544.10 50.64Q545.22 50.15 546.76 50.15ZM557.00 69.30Q555.16 69.30 553.63 68.41Q552.11 67.52 551.20 65.94Q550.30 64.36 550.30 62.30Q550.30 60.20 551.22 58.62Q552.14 57.04 553.70 56.15Q555.27 55.26 557.21 55.26Q559.37 55.26 560.64 56.20Q561.91 57.15 562.45 58.74Q562.99 60.33 562.99 62.30Q562.99 63.41 562.67 64.64Q562.34 65.87 561.65 66.92Q560.97 67.97 559.82 68.64Q558.67 69.30 557.00 69.30ZM557.91 66.81Q559.43 66.81 560.49 66.23Q561.56 65.65 562.11 64.63Q562.67 63.60 562.67 62.30Q562.67 60.87 562.10 59.86Q561.53 58.85 560.48 58.29Q559.43 57.74 557.91 57.74Q555.75 57.74 554.57 59.01Q553.38 60.28 553.38 62.30Q553.38 63.63 553.96 64.65Q554.54 65.68 555.57 66.25Q556.59 66.81 557.91 66.81ZM562.67 55.55L565.69 55.55L565.69 69.00L562.88 69.00Q562.88 69.00 562.83 68.49Q562.77 67.97 562.72 67.23Q562.67 66.49 562.67 65.81L562.67 55.55ZM583.46 63.79Q583.29 65.52 582.35 66.76Q581.40 68.00 579.82 68.65Q578.25 69.30 576.19 69.30Q573.98 69.30 572.18 68.49Q570.39 67.68 569.34 66.11Q568.28 64.54 568.28 62.30Q568.28 60.06 569.34 58.50Q570.39 56.93 572.18 56.09Q573.98 55.26 576.19 55.26Q578.25 55.26 579.81 55.92Q581.38 56.58 582.32 57.80Q583.27 59.01 583.43 60.74L580.68 60.74Q580.22 59.31 579.01 58.51Q577.81 57.71 576.19 57.71Q574.87 57.71 573.76 58.24Q572.66 58.77 571.99 59.78Q571.33 60.79 571.33 62.30Q571.33 63.79 571.99 64.82Q572.66 65.84 573.76 66.34Q574.87 66.84 576.19 66.84Q577.98 66.84 579.12 66.04Q580.27 65.25 580.70 63.79L583.46 63.79ZM597.33 64.57L600.22 64.57Q600.01 65.95 599.16 67.02Q598.31 68.08 596.85 68.69Q595.39 69.30 593.37 69.30Q591.07 69.30 589.26 68.45Q587.45 67.60 586.43 66.03Q585.40 64.46 585.40 62.30Q585.40 60.17 586.40 58.58Q587.40 56.98 589.17 56.12Q590.94 55.26 593.26 55.26Q595.66 55.26 597.27 56.11Q598.87 56.96 599.66 58.65Q600.44 60.33 600.30 62.90L588.45 62.90Q588.59 64.03 589.19 64.94Q589.80 65.84 590.85 66.34Q591.91 66.84 593.31 66.84Q594.88 66.84 595.94 66.22Q597.01 65.60 597.33 64.57ZM593.18 57.69Q591.34 57.69 590.15 58.59Q588.96 59.50 588.61 60.90L597.28 60.90Q597.17 59.39 596.07 58.54Q594.96 57.69 593.18 57.69ZM602.38 64.57L605.16 64.57Q605.38 65.60 606.27 66.23Q607.16 66.87 608.67 66.87Q609.65 66.87 610.20 66.65Q610.75 66.44 610.98 66.06Q611.21 65.68 611.21 65.19Q611.21 64.60 610.87 64.28Q610.54 63.95 609.89 63.74Q609.24 63.52 608.27 63.36Q607.27 63.11 606.30 62.82Q605.33 62.52 604.54 62.07Q603.76 61.63 603.31 60.94Q602.87 60.25 602.87 59.25Q602.87 58.34 603.29 57.59Q603.71 56.85 604.46 56.34Q605.22 55.82 606.24 55.54Q607.27 55.26 608.49 55.26Q610.24 55.26 611.41 55.82Q612.59 56.39 613.20 57.42Q613.80 58.44 613.80 59.77L611.16 59.77Q610.94 58.69 610.32 58.20Q609.70 57.71 608.46 57.71Q607.22 57.71 606.57 58.15Q605.92 58.58 605.92 59.33Q605.92 59.90 606.34 60.24Q606.76 60.58 607.54 60.82Q608.32 61.06 609.38 61.30Q610.35 61.58 611.21 61.86Q612.08 62.14 612.76 62.56Q613.45 62.98 613.86 63.65Q614.26 64.33 614.26 65.33Q614.26 66.57 613.60 67.46Q612.94 68.35 611.70 68.82Q610.46 69.30 608.70 69.30Q607.16 69.30 606.04 68.95Q604.92 68.60 604.18 68.03Q603.44 67.46 603.03 66.81Q602.63 66.16 602.48 65.57Q602.33 64.98 602.38 64.57ZM632.73 69.32Q630.49 69.32 628.68 68.73Q626.87 68.14 625.59 66.99Q624.31 65.84 623.62 64.17Q622.93 62.49 622.93 60.39Q622.93 58.25 623.66 56.55Q624.39 54.85 625.74 53.65Q627.09 52.45 628.95 51.81Q630.81 51.18 633.06 51.18Q635.67 51.18 637.59 51.99Q639.51 52.80 640.64 54.24Q641.78 55.69 641.94 57.66L639.10 57.66Q638.75 56.50 637.96 55.66Q637.16 54.82 635.93 54.35Q634.70 53.88 633.06 53.88Q630.90 53.88 629.32 54.70Q627.74 55.53 626.90 57.00Q626.06 58.47 626.06 60.39Q626.06 62.30 626.80 63.69Q627.55 65.08 629.06 65.85Q630.57 66.62 632.81 66.62Q634.54 66.62 635.85 66.10Q637.16 65.57 638.02 64.63Q638.89 63.68 639.24 62.44L640.62 62.12Q640.24 65.60 638.14 67.46Q636.05 69.32 632.73 69.32ZM639.89 69.00Q639.89 68.14 639.97 67.04Q640.05 65.95 640.17 64.80Q640.29 63.65 640.40 62.74L633.16 62.74L633.16 60.52L642.61 60.52L642.61 69.00L639.89 69.00ZM645.96 55.55L648.96 55.55L648.96 69.00L645.96 69.00L645.96 55.55ZM653.82 58.12Q652.36 58.12 651.32 58.74Q650.28 59.36 649.66 60.25Q649.04 61.14 648.80 61.98L648.77 60.47Q648.80 60.17 648.96 59.56Q649.12 58.96 649.46 58.23Q649.80 57.50 650.38 56.81Q650.96 56.12 651.81 55.69Q652.66 55.26 653.82 55.26L653.82 58.12ZM663.24 69.30Q661.00 69.30 659.22 68.49Q657.44 67.68 656.41 66.11Q655.38 64.54 655.38 62.30Q655.38 60.09 656.41 58.51Q657.44 56.93 659.22 56.09Q661.00 55.26 663.24 55.26Q665.48 55.26 667.24 56.09Q668.99 56.93 670.00 58.51Q671.02 60.09 671.02 62.30Q671.02 64.54 670.00 66.11Q668.99 67.68 667.24 68.49Q665.48 69.30 663.24 69.30ZM663.24 66.84Q664.54 66.84 665.62 66.33Q666.70 65.81 667.33 64.79Q667.97 63.76 667.97 62.30Q667.97 60.85 667.33 59.82Q666.70 58.79 665.63 58.24Q664.56 57.69 663.24 57.69Q661.92 57.69 660.84 58.23Q659.76 58.77 659.10 59.79Q658.44 60.82 658.44 62.30Q658.44 63.76 659.08 64.79Q659.73 65.81 660.82 66.33Q661.92 66.84 663.24 66.84ZM687.70 69.00L684.71 69.00L684.71 55.55L687.70 55.55L687.70 69.00ZM684.87 62.60L684.90 63.46Q684.84 63.82 684.67 64.52Q684.49 65.22 684.10 66.04Q683.71 66.87 683.07 67.61Q682.44 68.35 681.49 68.82Q680.55 69.30 679.20 69.30Q678.23 69.30 677.24 69.04Q676.26 68.78 675.46 68.19Q674.66 67.60 674.18 66.57Q673.69 65.54 673.69 63.98L673.69 55.55L676.69 55.55L676.69 63.41Q676.69 64.68 677.11 65.40Q677.52 66.11 678.28 66.41Q679.04 66.70 680.04 66.70Q681.47 66.70 682.47 66.06Q683.46 65.41 684.07 64.45Q684.68 63.49 684.87 62.60ZM699.66 69.30Q698.02 69.30 696.87 68.65Q695.72 68.00 695.03 66.93Q694.35 65.87 694.02 64.64Q693.70 63.41 693.70 62.30Q693.70 60.82 694.01 59.55Q694.32 58.28 695.01 57.32Q695.70 56.36 696.84 55.81Q697.99 55.26 699.66 55.26Q701.55 55.26 703.07 56.16Q704.58 57.07 705.47 58.65Q706.36 60.22 706.36 62.30Q706.36 64.38 705.46 65.96Q704.55 67.54 703.04 68.42Q701.53 69.30 699.66 69.30ZM698.77 66.81Q700.12 66.81 701.15 66.25Q702.18 65.68 702.74 64.65Q703.31 63.63 703.31 62.30Q703.31 60.28 702.12 59.00Q700.93 57.71 698.77 57.71Q697.42 57.71 696.34 58.28Q695.26 58.85 694.64 59.86Q694.02 60.87 694.02 62.30Q694.02 63.60 694.59 64.63Q695.16 65.65 696.21 66.23Q697.26 66.81 698.77 66.81ZM691.02 55.55L693.89 55.55L694.02 58.85L694.02 74.40L691.02 74.40L691.02 55.55Z"/>
</svg>
